<mxfile host="app.diagrams.net" modified="2022-01-08T12:32:32.017Z" agent="5.0 (Windows NT 10.0; Win64; x64) AppleWebKit/537.36 (KHTML, like Gecko) Chrome/96.0.4664.110 Safari/537.36" etag="hbus87sULL4bpNdK8Fj9" version="16.2.4" type="github">
  <diagram id="btiTAqaJpByad_Lh6CQR" name="Page-1">
    <mxGraphModel dx="1422" dy="762" grid="1" gridSize="10" guides="1" tooltips="1" connect="1" arrows="1" fold="1" page="1" pageScale="1" pageWidth="827" pageHeight="1169" background="none" math="0" shadow="0">
      <root>
        <mxCell id="0" />
        <mxCell id="1" parent="0" />
        <mxCell id="hf2YDGAConuAL65-_Zs7-1" value="导师" style="shape=umlActor;verticalLabelPosition=bottom;verticalAlign=top;html=1;" vertex="1" parent="1">
          <mxGeometry x="70" y="310" width="30" height="60" as="geometry" />
        </mxCell>
        <mxCell id="hf2YDGAConuAL65-_Zs7-2" value="项目" style="ellipse;whiteSpace=wrap;html=1;shadow=0;" vertex="1" parent="1">
          <mxGeometry x="170" y="190" width="140" height="70" as="geometry" />
        </mxCell>
        <mxCell id="hf2YDGAConuAL65-_Zs7-3" value="人员" style="ellipse;whiteSpace=wrap;html=1;shadow=0;" vertex="1" parent="1">
          <mxGeometry x="170" y="310" width="140" height="70" as="geometry" />
        </mxCell>
        <mxCell id="hf2YDGAConuAL65-_Zs7-4" value="时间" style="ellipse;whiteSpace=wrap;html=1;shadow=0;" vertex="1" parent="1">
          <mxGeometry x="170" y="430" width="140" height="70" as="geometry" />
        </mxCell>
        <mxCell id="hf2YDGAConuAL65-_Zs7-5" value="项目" style="ellipse;whiteSpace=wrap;html=1;shadow=0;" vertex="1" parent="1">
          <mxGeometry x="360" y="100" width="140" height="70" as="geometry" />
        </mxCell>
        <mxCell id="hf2YDGAConuAL65-_Zs7-6" value="项目" style="ellipse;whiteSpace=wrap;html=1;shadow=0;" vertex="1" parent="1">
          <mxGeometry x="360" y="260" width="140" height="70" as="geometry" />
        </mxCell>
      </root>
    </mxGraphModel>
  </diagram>
</mxfile>
